<?xml version="1.0" encoding="UTF-8"?><svg xmlns="http://www.w3.org/2000/svg" xmlns:xlink="http://www.w3.org/1999/xlink" version="1.1" id="Layer_1" x="0px" y="0px" viewBox="0 0 16 16" xml:space="preserve"><path d="M14 0H2a2 2 0 0 0-2 2v12a2 2 0 0 0 2 2h12a2 2 0 0 0 2-2V2a2 2 0 0 0-2-2zM7 12a1 1 0 0 1-1 1H3a1 1 0 0 1-1-1V3a1 1 0 0 1 1-1h3a1 1 0 0 1 1 1v9zm7-4a1 1 0 0 1-1 1h-3a1 1 0 0 1-1-1V3a1 1 0 0 1 1-1h3a1 1 0 0 1 1 1v5z"/><metadata><rdf:RDF xmlns:rdf="http://www.w3.org/1999/02/22-rdf-syntax-ns#" xmlns:rdfs="http://www.w3.org/2000/01/rdf-schema#" xmlns:dc="http://purl.org/dc/elements/1.1/"><rdf:Description about="https://iconscout.com/legal#licenses" dc:title="trello,logo,solid,e" dc:description="trello,logo,solid,e" dc:publisher="Iconscout" dc:date="2018-03-05" dc:format="image/svg+xml" dc:language="en"><dc:creator><rdf:Bag><rdf:li>Pixel Icons</rdf:li></rdf:Bag></dc:creator></rdf:Description></rdf:RDF></metadata></svg>